<svg xmlns="http://www.w3.org/2000/svg" version="1.1" xmlns:xlink="http://www.w3.org/1999/xlink" xmlns:svgjs="http://svgjs.dev/svgjs" width="2000" height="1500" viewBox="0 0 2000 1500"><rect width="2000" height="1500" fill="#050816"></rect><g transform="matrix(0.4444444444444444,0,0,0.4444444444444444,555.5561388888889,250)"><svg viewBox="0 0 320 360" data-background-color="#050816" preserveAspectRatio="xMidYMid meet" height="2250" width="2000" xmlns="http://www.w3.org/2000/svg" xmlns:xlink="http://www.w3.org/1999/xlink"><g id="tight-bounds" transform="matrix(1,0,0,1,-0.00020999999998139174,0)"><svg viewBox="0 0 320 360" height="360" width="320"><g><svg></svg></g><g><svg viewBox="0 0 320 360" height="360" width="320"><g><path transform="translate(-17.77778,2.22222) scale(3.55556,3.55556)" d="M95 52c0-12.871-5.692-24.431-14.682-32.318-7.887-8.99-19.447-14.682-32.318-14.682-23.71 0-43 19.29-43 43 0 12.868 5.69 24.426 14.677 32.313 7.887 8.993 19.449 14.687 32.323 14.687 0.084 0 0.166-0.006 0.25-0.006 0.084 0 0.166 0.006 0.25 0.006 23.472 0 42.5-19.028 42.5-42.5 0-0.084-0.006-0.166-0.006-0.25 0-0.084 0.006-0.166 0.006-0.25zM21.828 73.371c-4.245-5.978-6.77-13.259-6.822-21.121 0.135-20.511 16.732-37.109 37.244-37.244 7.862 0.052 15.144 2.577 21.121 6.822 6.853 6.645 11.129 15.93 11.129 26.172 0 20.126-16.374 36.5-36.5 36.5-10.242 0-19.527-4.276-26.172-11.129zM6 48c0-23.159 18.841-42 42-42 9.858 0 18.926 3.422 26.1 9.13-6.463-3.888-14.024-6.13-22.1-6.13-23.71 0-43 19.29-43 43 0 8.074 2.241 15.633 6.127 22.095-5.706-7.172-9.127-16.239-9.127-26.095zM52 89c-10.08 0-19.227-4.055-25.905-10.615 6.174 4.469 13.743 7.115 21.905 7.115 20.678 0 37.5-16.822 37.5-37.5 0-8.162-2.646-15.731-7.115-21.905 6.56 6.678 10.615 15.825 10.615 25.905 0 20.402-16.598 37-37 37z" fill="#fa4238" fill-rule="nonzero" stroke="none" stroke-width="1" stroke-linecap="butt" stroke-linejoin="miter" stroke-miterlimit="10" stroke-dasharray="" stroke-dashoffset="0" font-family="none" font-weight="none" font-size="none" text-anchor="none" style="mix-blend-mode: normal" data-fill-palette-color="tertiary"></path></g><g transform="matrix(1,0,0,1,64,150.47134819596565)"><svg viewBox="0 0 192 59.05730360806871" height="59.05730360806871" width="192"><g><svg viewBox="0 0 192 59.05730360806871" height="59.05730360806871" width="192"><g transform="matrix(1,0,0,1,0,38.6736830207173)"><svg viewBox="0 0 192 20.383620587351412" height="20.383620587351412" width="192"><g id="textblocktransform"><svg viewBox="0 0 192 20.383620587351412" height="20.383620587351412" width="192" id="textblock"><g><svg viewBox="0 0 192 20.383620587351412" height="20.383620587351412" width="192"><g transform="matrix(1,0,0,1,0,0)"><svg width="192" viewBox="1.37271 -28.943088930572774 436.83031 46.37598893057276" height="20.383620587351412" data-palette-color="#fa4238"><path d="M1.373 15.291l4.84-0.434-2.938-32.728 5.887-0.529 1.527 17.012 14.428-18.444 7.48-0.672-12.643 16.527 14.241 16.372-0.004-0.05 4.84-0.434 0.193 2.141-10.279 0.923-12.933-14.221-4.598 5.935 0.878 9.781-10.727 0.963zM72.331 9.545l5.795-0.417 0.154 2.145-11.141 0.801-4.072-7.688-17.475 1.256-2.93 8.191-11.141 0.801-0.155-2.144 5.795-0.417 12.077-33.813 6.294-0.452zM47.594 0.024l12.688-0.912-7.378-13.927zM117.313 6.99l4.853-0.266 0.117 2.147-10.754 0.588-1.493-27.299-10.875 24.921-3.295 0.18-13.479-23.589 1.493 27.3-10.754 0.588-0.117-2.147 4.853-0.265-1.795-32.811 9.196-0.503 11.756 21.379 9.353-22.534 9.146-0.5zM148.609 5.758l4.856-0.178 0.079 2.149-31.579 1.156-0.078-2.148 4.856-0.178-1.202-32.838 5.906-0.216 1.076 29.38 15.959-0.584zM150.006 5.685l4.859-0.113-0.762-32.851 24.583-0.57 0.129 5.558-18.675 0.434 0.215 9.267 16.766-0.389 0.122 5.258-16.766 0.39 0.217 9.357 19.275-0.447 0.079 3.409 4.859-0.113 0.05 2.149-34.901 0.811zM207.825 4.677l6.26-0.059 0.02 2.15-31.549 0.295-0.02-2.15 6.41-0.06c-1.608-0.825-3.087-1.848-4.439-3.069v0l3.668-4.494c3.569 3.04 7.256 4.542 11.063 4.507v0c1.9-0.018 3.406-0.442 4.518-1.273 1.112-0.824 1.662-1.912 1.65-3.265-0.013-1.353-0.549-2.402-1.61-3.145-1.06-0.737-2.877-1.403-5.448-1.999-2.579-0.596-4.538-1.144-5.876-1.646-1.345-0.507-2.538-1.173-3.579-1.996v0c-2.081-1.547-3.137-3.941-3.167-7.181-0.03-3.24 1.123-5.747 3.46-7.523 2.337-1.775 5.242-2.679 8.715-2.711v0c2.233-0.021 4.457 0.325 6.67 1.038 2.207 0.719 4.116 1.738 5.729 3.056v0l-3.109 4.489c-1.042-0.93-2.453-1.687-4.231-2.27-1.772-0.583-3.518-0.867-5.238-0.851-1.72 0.016-3.127 0.379-4.22 1.089-1.093 0.71-1.633 1.775-1.62 3.195 0.013 1.42 0.573 2.501 1.68 3.245 1.107 0.743 3.458 1.531 7.052 2.364 3.601 0.833 6.319 2.024 8.154 3.574 1.835 1.556 2.765 3.751 2.792 6.584v0c0.032 3.44-1.213 6.142-3.735 8.106zM252.739 7.017l0.014-2.15-4.86-0.031 0.21-32.859-5.9-0.038-0.097 15.18-17.38-0.111 0.098-15.18-5.91-0.038-0.224 35.01 5.91 0.037 0.091-14.319 17.38 0.111-0.092 14.319zM213.844 4.619l4.86 0.031-0.014 2.15-4.86-0.031zM252.574 4.865l13.718 0.249-0.039 2.15-13.718-0.249zM295.013 5.951l6.458 0.188-0.063 2.149-35.345-1.029 0.063-2.149 4.858 0.142 0.956-32.846 13.614 0.396c2.372 0.069 4.406 0.415 6.102 1.038 1.703 0.616 2.96 1.42 3.772 2.411v0c1.547 1.846 2.287 3.905 2.221 6.177v0c-0.08 2.739-1.005 4.749-2.777 6.032v0c-0.653 0.448-1.098 0.728-1.335 0.841-0.237 0.106-0.659 0.284-1.266 0.533v0c2.159 0.53 3.856 1.556 5.093 3.08 1.243 1.523 1.832 3.385 1.768 5.584v0c-0.096 3.305-1.469 5.79-4.119 7.453zM277.266-7.441l-0.279 9.556 9.256 0.269c2.172 0.063 3.842-0.232 5.008-0.884 1.173-0.646 1.787-1.922 1.843-3.828v0c0.09-3.099-2.35-4.72-7.322-4.865v0zM277.688-21.965l-0.264 9.066 7.507 0.219c4.272 0.124 6.45-1.266 6.534-4.172v0c0.049-1.666-0.433-2.884-1.444-3.653-1.018-0.763-2.61-1.176-4.776-1.24v0zM339.984 10.054l0.098-2.148-4.855-0.222 1.501-32.825-5.894-0.27-0.694 15.164-17.361-0.793 0.693-15.164-5.904-0.27-1.599 34.973 5.904 0.27 0.654-14.305 17.362 0.794-0.654 14.305zM301.212 6.129l4.855 0.222-0.098 2.148-4.855-0.222zM375.924 10.236l5.798 0.377-0.14 2.145-11.146-0.724-2.987-8.17-17.483-1.135-4.019 7.715-11.146-0.723 0.139-2.146 5.798 0.377 16.569-31.854 6.296 0.409zM352.715-2.564l12.693 0.824-5.413-14.802zM394.704 11.607l12.134 0.944-0.167 2.144-30.159-2.348 0.167-2.144 12.133 0.945 2.131-27.367-10.588-0.825 0.42-5.393 27.068 2.107-0.42 5.394-10.588-0.824zM424.634 14.181l12.119 1.108-0.196 2.141-30.124-2.755 0.196-2.141 12.119 1.108 2.501-27.335-10.576-0.968 0.493-5.387 27.037 2.473-0.493 5.387-10.576-0.967z" opacity="1" transform="matrix(1,0,0,1,0,0)" fill="#fa4238" class="wordmark-text-0" data-fill-palette-color="primary" id="text-0"></path></svg></g></svg></g></svg></g></svg></g><g transform="matrix(1,0,0,1,68.74194332696334,0)"><svg viewBox="0 0 54.51611334607331 32.980698110334586" height="32.980698110334586" width="54.51611334607331"><g><svg xmlns="http://www.w3.org/2000/svg" xmlns:xlink="http://www.w3.org/1999/xlink" version="1.1" viewBox="1.7189999999999983 20.00262250704499 92.562 55.99737749295501" x="0" y="0" height="32.980698110334586" width="54.51611334607331" class="icon-icon-0" data-fill-palette-color="accent" id="icon-0"><path d="M28.288 74.572c-0.512 0-1.024-0.196-1.416-0.584l-24.568-24.572c-0.78-0.776-0.78-2.052 0-2.828l24.568-24.576c0.78-0.78 2.052-0.78 2.828 0 0.78 0.78 0.78 2.048 0 2.828l-23.156 23.156 23.156 23.156c0.78 0.78 0.78 2.048 0 2.828-0.388 0.396-0.9 0.592-1.412 0.592z" fill="#ffd9d7" data-fill-palette-color="accent"></path><path d="M67.716 74.572c-0.512 0-1.024-0.196-1.416-0.584-0.78-0.78-0.78-2.048 0-2.828l23.156-23.16-23.156-23.156c-0.78-0.78-0.78-2.048 0-2.828s2.048-0.78 2.828 0l24.568 24.576c0.78 0.776 0.78 2.052 0 2.828l-24.568 24.572c-0.388 0.384-0.9 0.58-1.412 0.58z" fill="#ffd9d7" data-fill-palette-color="accent"></path><path d="M38.288 76c-0.244 0-0.484-0.048-0.724-0.132-1.028-0.4-1.544-1.556-1.144-2.584l20-52c0.396-1.028 1.556-1.544 2.584-1.148 1.028 0.4 1.544 1.556 1.148 2.584l-20 52c-0.304 0.788-1.06 1.28-1.864 1.28z" fill="#ffd9d7" data-fill-palette-color="accent"></path></svg></g></svg></g><g></g></svg></g></svg></g></svg></g><defs></defs></svg><rect width="320" height="360" fill="none" stroke="none" visibility="hidden"></rect></g></svg></g></svg>